<?xml version="1.0" encoding="UTF-8"?>
<svg width="7px" height="7px" viewBox="0 0 7 7" version="1.1" xmlns="http://www.w3.org/2000/svg" xmlns:xlink="http://www.w3.org/1999/xlink">
    <title>Combined Shape</title>
    <g id="Page-1" stroke="none" stroke-width="1" fill="none" fill-rule="evenodd">
        <g id="Artboard" transform="translate(-201.000000, -12.000000)" fill="#262828">
            <path d="M202.732233,13.0251263 L204.49968,14.7926797 L206.267767,13.0251263 C206.463029,12.8298641 206.779612,12.8298641 206.974874,13.0251263 C207.170136,13.2203884 207.170136,13.5369709 206.974874,13.732233 L205.20668,15.4996797 L206.974874,17.267767 C207.170136,17.4630291 207.170136,17.7796116 206.974874,17.9748737 C206.779612,18.1701359 206.463029,18.1701359 206.267767,17.9748737 L204.49968,16.2066797 L202.732233,17.9748737 C202.536971,18.1701359 202.220388,18.1701359 202.025126,17.9748737 C201.829864,17.7796116 201.829864,17.4630291 202.025126,17.267767 L203.79268,15.4996797 L202.025126,13.732233 C201.829864,13.5369709 201.829864,13.2203884 202.025126,13.0251263 C202.220388,12.8298641 202.536971,12.8298641 202.732233,13.0251263 Z" id="Combined-Shape"></path>
        </g>
    </g>
</svg>