<?xml version="1.0" encoding="UTF-8"?>
<svg width="512px" height="512px" viewBox="0 0 512 512" version="1.1" xmlns="http://www.w3.org/2000/svg" xmlns:xlink="http://www.w3.org/1999/xlink">
    <title>Shape</title>
    <g id="Page-1" stroke="none" stroke-width="1" fill="none" fill-rule="evenodd">
        <g id="Artboard" fill="#ffffff" fill-rule="nonzero">
            <path d="M505.743444,475.584 L360.145043,329.984 C388.347733,295.147 405.328547,250.88 405.328547,202.667 C405.328547,90.923 314.406546,0 202.663773,0 C90.9210011,0 0,90.922 0,202.666 C0,314.41 90.9220011,405.333 202.664773,405.333 C250.877244,405.333 295.143757,388.352 329.980375,360.149 L475.578775,505.749 C479.738729,509.909 485.199669,512 490.661609,512 C496.123549,512 501.584489,509.909 505.744444,505.749 C514.085352,497.408 514.085352,483.925 505.743444,475.584 Z M202.664773,362.666 C114.430743,362.666 42.6665313,290.901 42.6665313,202.666 C42.6665313,114.431 114.430743,42.666 202.664773,42.666 C290.898804,42.666 362.663016,114.431 362.663016,202.666 C362.663016,290.901 290.897804,362.666 202.664773,362.666 Z" id="Shape"></path>
        </g>
    </g>
</svg>