<?xml version="1.0" encoding="UTF-8"?>
<svg width="301px" height="697px" viewBox="0 0 301 697" version="1.1" xmlns="http://www.w3.org/2000/svg" xmlns:xlink="http://www.w3.org/1999/xlink">
    <title>Path</title>
    <g id="Page-1" stroke="none" stroke-width="1" fill="none" fill-rule="evenodd">
        <g id="Artboard" transform="translate(-376.000000, -280.000000)" fill="#F2F2F2" fill-rule="nonzero">
            <path d="M670.33,921.46 C660.9,911.4 639,902.79 609.65,897.08 L609.65,767.43 L608.31,767.43 L608.31,766.09 L584.14,766.09 L584.14,767.43 L546.14,767.43 C549.55,747.82 560.91,679.43 558.62,651.95 C558.62,651.95 588.16,571.38 563.99,504.24 C563.99,504.24 588.16,509.61 590.85,482.76 C593.02,461.08 617.91,413.17 589.32,385.61 C582.61,378.61 572.64,372.76 558.24,368.88 L551.24,349.3 C555.81,342.08 558.62,332.36 558.62,321.62 C558.62,307.17 553.55,294.51 545.93,287.4 C541.55,282.74 536.2,280 530.42,280 C526.023944,280.06965 521.775266,281.596079 518.34,284.34 C518.84,284.72 519.34,285.13 519.81,285.55 C510.98,292.15 504.91,305.82 504.91,321.62 C504.91,333.62 508.41,344.29 513.91,351.62 L510.27,375.28 C510.27,375.28 435.08,356.48 467.27,482.71 C467.27,482.71 475.33,504.19 488.76,504.19 C488.76,504.19 480.7,600.87 494.13,635.79 C494.13,635.79 488.76,721.73 499.5,740.53 L499.5,767.38 L432.4,767.38 L432.4,900.38 C398.03,908.25 376,920.38 376,933.91 C376,957.64 443.34,976.91 526.4,976.91 C609.46,976.91 676.79,957.67 676.79,933.91 C676.79,929.6 674.52,925.41 670.33,921.46 Z" id="Path"></path>
        </g>
    </g>
</svg>